<?xml version="1.0" encoding="UTF-8"?>
<!DOCTYPE svg PUBLIC "-//W3C//DTD SVG 1.1//EN" "http://www.w3.org/Graphics/SVG/1.1/DTD/svg11.dtd">
<!-- Creator: CorelDRAW -->
<svg xmlns="http://www.w3.org/2000/svg" xml:space="preserve" width="1.70666in" height="1.70666in" version="1.1" style="shape-rendering:geometricPrecision; text-rendering:geometricPrecision; image-rendering:optimizeQuality; fill-rule:evenodd; clip-rule:evenodd"
viewBox="0 0 1706.66 1706.66"
 xmlns:xlink="http://www.w3.org/1999/xlink"
 xmlns:xodm="http://www.corel.com/coreldraw/odm/2003">
 <defs>
  <style type="text/css">
   <![CDATA[
    .fil0 {fill:black}
   ]]>
  </style>
 </defs>
 <g id="Layer_x0020_1">
  <metadata id="CorelCorpID_0Corel-Layer"/>
  <path class="fil0" d="M853.35 1401.92c-302.52,0 -548.63,-246.12 -548.63,-548.64 0,-302.52 246.12,-548.63 548.63,-548.63 302.51,0 548.65,246.12 548.65,548.63 -0.01,302.51 -246.13,548.64 -548.65,548.64zm0 -1057.29c-280.48,0 -508.65,228.19 -508.65,508.65 0,280.46 228.19,508.65 508.65,508.65 280.47,0 508.65,-228.19 508.65,-508.65 0,-280.48 -228.18,-508.65 -508.65,-508.65z"/>
  <path class="fil0" d="M853.35 225.39c-11.03,0 -19.99,-8.96 -19.99,-19.99l0 -185.01c0,-26.32 39.98,-26.32 39.98,0l0 185.02c0,11.04 -8.95,19.98 -19.99,19.98z"/>
  <path class="fil0" d="M1177.28 312.2c-15.16,0 -25.07,-16.53 -17.3,-29.98l92.5 -160.23c13.15,-22.77 47.79,-2.82 34.62,19.99l-92.5 160.23c-3.7,6.42 -10.43,10 -17.32,10z"/>
  <path class="fil0" d="M1414.45 549.35c-20.3,0 -27.68,-27.11 -10.01,-37.3l160.23 -92.51c22.78,-13.17 42.79,21.47 19.99,34.62 -21.47,12.38 -158.28,95.19 -170.2,95.19z"/>
  <path class="fil0" d="M1686.25 873.3l-185.02 0c-26.31,0 -26.31,-39.98 0,-39.98l185.02 0c26.32,0 26.31,39.98 0,39.98z"/>
  <path class="fil0" d="M1574.64 1289.73c-11.94,0 -148.73,-82.81 -170.2,-95.19 -22.81,-13.15 -2.78,-47.77 19.99,-34.62l160.22 92.51c17.71,10.21 10.26,37.3 -10.01,37.3z"/>
  <path class="fil0" d="M1269.84 1594.66c-6.9,0 -13.62,-3.59 -17.33,-10.01l-92.51 -160.22c-13.15,-22.79 21.45,-42.77 34.62,-19.99l92.51 160.22c7.76,13.44 -2.15,30 -17.29,30z"/>
  <path class="fil0" d="M853.34 1706.26c-11.04,0 -19.99,-8.96 -19.99,-19.99l0 -185.01c0,-26.32 39.98,-26.31 39.98,0l0 185.01c0,11.03 -8.94,19.99 -19.99,19.99z"/>
  <path class="fil0" d="M436.85 1594.66c-15.18,0 -25.04,-16.56 -17.29,-29.99l92.51 -160.23c13.15,-22.81 47.77,-2.8 34.62,19.99l-92.51 160.23c-3.69,6.42 -10.41,10 -17.33,10z"/>
  <path class="fil0" d="M132.03 1289.78c-20.3,0 -27.71,-27.11 -10.03,-37.31l160.23 -92.5c22.78,-13.15 42.78,21.46 19.99,34.62 -21.37,12.35 -158.35,95.19 -170.19,95.19z"/>
  <path class="fil0" d="M205.42 873.31l-185.01 0c-26.32,0 -26.32,-39.98 0,-39.98l185.01 0c26.31,0 26.33,39.98 0,39.98z"/>
  <path class="fil0" d="M292.22 549.37c-11.92,0 -148.77,-82.81 -170.22,-95.19 -22.75,-13.13 -2.84,-47.79 19.99,-34.62l160.23 92.51c17.66,10.19 10.31,37.3 -10,37.3z"/>
  <path class="fil0" d="M529.41 312.21c-6.91,0 -13.63,-3.58 -17.34,-10l-92.52 -160.23c-13.15,-22.81 21.48,-42.78 34.62,-19.99l92.51 160.23c7.76,13.45 -2.13,29.98 -17.28,29.98z"/>
  <path class="fil0" d="M1021.05 247.48c-13.13,0 -22.74,-12.44 -19.32,-25.17l23.94 -89.36c6.81,-25.41 45.45,-15.13 38.62,10.34l-23.95 89.36c-2.38,8.94 -10.46,14.83 -19.29,14.83z"/>
  <path class="fil0" d="M1311.47 415.15c-17.62,0 -26.81,-21.47 -14.15,-34.12l65.41 -65.41c18.62,-18.62 46.9,9.66 28.28,28.26 -19.87,19.85 -64.16,71.27 -79.55,71.27z"/>
  <path class="fil0" d="M1479.14 705.59c-23.12,0 -27.62,-33.3 -5.17,-39.31l89.36 -23.95c25.46,-6.8 35.75,31.82 10.36,38.63l-94.55 24.63z"/>
  <path class="fil0" d="M1568.53 1064.9l-94.56 -24.64c-25.43,-6.8 -15.05,-45.5 10.36,-38.62l89.36 23.95c22.48,6.01 17.93,39.31 -5.16,39.31z"/>
  <path class="fil0" d="M1376.88 1396.8c-15.39,0 -59.74,-51.46 -79.56,-71.27 -18.64,-18.64 9.69,-46.89 28.28,-28.28l65.41 65.41c12.64,12.64 3.5,34.14 -14.14,34.14z"/>
  <path class="fil0" d="M1044.97 1588.43c-8.83,0 -16.91,-5.9 -19.3,-14.81l-23.94 -89.36c-6.81,-25.43 31.81,-35.81 38.61,-10.36l23.95 89.36c3.41,12.74 -6.19,25.17 -19.32,25.17z"/>
  <path class="fil0" d="M661.75 1588.43c-13.07,0 -22.76,-12.41 -19.34,-25.18l23.94 -89.36c6.83,-25.46 45.43,-15.06 38.63,10.35l-23.95 89.36c-2.4,8.92 -10.48,14.82 -19.29,14.82z"/>
  <path class="fil0" d="M329.83 1396.8c-17.62,0 -26.78,-21.51 -14.13,-34.14l65.41 -65.41c18.64,-18.64 46.87,9.69 28.26,28.28 -19.89,19.87 -64.15,71.27 -79.55,71.27z"/>
  <path class="fil0" d="M138.19 1064.9c-23.12,0 -27.64,-33.29 -5.15,-39.3l89.36 -23.95c25.35,-6.88 35.83,31.81 10.34,38.62l-94.55 24.63z"/>
  <path class="fil0" d="M227.56 705.59l-94.55 -24.63c-25.46,-6.82 -15.05,-45.44 10.34,-38.63l89.36 23.95c22.46,6.02 17.97,39.31 -5.15,39.31z"/>
  <path class="fil0" d="M395.24 415.15c-15.39,0 -59.66,-51.41 -79.54,-71.27 -18.62,-18.61 9.66,-46.88 28.26,-28.26l65.41 65.41c12.65,12.64 3.48,34.12 -14.14,34.12z"/>
  <path class="fil0" d="M685.66 247.48c-8.83,0 -16.91,-5.89 -19.3,-14.83l-23.94 -89.36c-6.82,-25.43 31.82,-35.77 38.63,-10.34l23.95 89.36c3.42,12.75 -6.24,25.17 -19.33,25.17z"/>
  <path class="fil0" d="M1082.13 1037.46l-72.02 0c-8.44,0 -15.98,-5.31 -18.82,-13.27l-119.39 -334.05c-8.86,-24.79 28.79,-38.2 37.67,-13.44l114.64 320.78 43.87 0 114.86 -320.79c8.87,-24.79 46.52,-11.3 37.64,13.48l-119.61 334.05c-2.84,7.93 -10.37,13.24 -18.82,13.24z"/>
  <path class="fil0" d="M642.07 1043.14c-70.68,0 -134.08,-24.13 -149.95,-92.2 -11.1,-47.61 -7.15,-208.91 -7.15,-267.53 0,-26.32 39.98,-26.32 39.98,0 0,52.11 -3.53,217.15 6.1,258.43 16.8,72.03 128.63,68.85 167.74,52.69 54.48,-22.51 52.48,-69.52 52.48,-135.67l0 -175.45c0,-26.32 39.98,-26.32 39.98,0 0,53.68 3.24,223.36 -5.91,264.79 -15.25,69.07 -74.08,94.94 -143.27,94.94z"/>
 </g>
</svg>
